<svg xmlns="http://www.w3.org/2000/svg" xmlns:xlink="http://www.w3.org/1999/xlink" width="45" zoomAndPan="magnify" viewBox="0 0 33.75 33.749998" height="45" preserveAspectRatio="xMidYMid meet" version="1.0"><defs><clipPath id="da3c3b1c80"><path d="M 0.929688 0.929688 L 32.945312 0.929688 L 32.945312 32.945312 L 0.929688 32.945312 Z M 0.929688 0.929688 " clip-rule="nonzero"/></clipPath><clipPath id="aa79d7bab2"><path d="M 0.929688 0.929688 L 32.945312 0.929688 L 32.945312 32.945312 L 0.929688 32.945312 Z M 0.929688 0.929688 " clip-rule="nonzero"/></clipPath></defs><path fill="#f15a24" d="M 14.378906 19.019531 L 16.304688 19.019531 L 19.390625 24.84375 L 23.488281 24.84375 L 19.828125 18.367188 C 21.558594 17.585938 22.714844 16.078125 22.714844 13.703125 C 22.714844 9.851562 19.894531 8.660156 16.464844 8.660156 L 10.710938 8.660156 L 10.710938 24.84375 L 14.378906 24.84375 Z M 14.378906 11.566406 L 16.164062 11.566406 C 18.089844 11.566406 19.121094 12.101562 19.121094 13.703125 C 19.121094 15.285156 18.089844 16.113281 16.164062 16.113281 L 14.378906 16.113281 Z M 14.378906 11.566406 " fill-opacity="1" fill-rule="nonzero"/><g clip-path="url(#da3c3b1c80)"><path fill="#f15a24" d="M 16.75 32.570312 C 12.523438 32.570312 8.550781 30.925781 5.5625 27.9375 C 2.574219 24.949219 0.929688 20.976562 0.929688 16.75 C 0.929688 12.523438 2.574219 8.550781 5.5625 5.5625 C 8.550781 2.574219 12.523438 0.929688 16.75 0.929688 C 20.976562 0.929688 24.949219 2.574219 27.9375 5.5625 C 30.925781 8.550781 32.570312 12.523438 32.570312 16.75 C 32.570312 20.976562 30.925781 24.949219 27.9375 27.9375 C 24.949219 30.925781 20.976562 32.570312 16.75 32.570312 Z M 16.75 3.339844 C 13.167969 3.339844 9.800781 4.734375 7.269531 7.269531 C 4.734375 9.800781 3.339844 13.167969 3.339844 16.75 C 3.339844 20.332031 4.734375 23.699219 7.269531 26.234375 C 9.800781 28.765625 13.167969 30.160156 16.75 30.160156 C 20.332031 30.160156 23.699219 28.765625 26.234375 26.234375 C 28.765625 23.699219 30.160156 20.332031 30.160156 16.75 C 30.160156 13.167969 28.765625 9.800781 26.234375 7.269531 C 23.699219 4.734375 20.332031 3.339844 16.75 3.339844 Z M 16.75 3.339844 " fill-opacity="1" fill-rule="nonzero"/></g><path fill="#f15a24" d="M 14.378906 19.019531 L 16.304688 19.019531 L 19.390625 24.84375 L 23.488281 24.84375 L 19.828125 18.367188 C 21.558594 17.585938 22.714844 16.078125 22.714844 13.703125 C 22.714844 9.851562 19.894531 8.660156 16.464844 8.660156 L 10.710938 8.660156 L 10.710938 24.84375 L 14.378906 24.84375 Z M 14.378906 11.566406 L 16.164062 11.566406 C 18.089844 11.566406 19.121094 12.101562 19.121094 13.703125 C 19.121094 15.285156 18.089844 16.113281 16.164062 16.113281 L 14.378906 16.113281 Z M 14.378906 11.566406 " fill-opacity="1" fill-rule="nonzero"/><g clip-path="url(#aa79d7bab2)"><path fill="#f15a24" d="M 16.75 32.570312 C 12.523438 32.570312 8.550781 30.925781 5.5625 27.9375 C 2.574219 24.949219 0.929688 20.976562 0.929688 16.75 C 0.929688 12.523438 2.574219 8.550781 5.5625 5.5625 C 8.550781 2.574219 12.523438 0.929688 16.75 0.929688 C 20.976562 0.929688 24.949219 2.574219 27.9375 5.5625 C 30.925781 8.550781 32.570312 12.523438 32.570312 16.75 C 32.570312 20.976562 30.925781 24.949219 27.9375 27.9375 C 24.949219 30.925781 20.976562 32.570312 16.75 32.570312 Z M 16.75 3.339844 C 13.167969 3.339844 9.800781 4.734375 7.269531 7.269531 C 4.734375 9.800781 3.339844 13.167969 3.339844 16.75 C 3.339844 20.332031 4.734375 23.699219 7.269531 26.234375 C 9.800781 28.765625 13.167969 30.160156 16.75 30.160156 C 20.332031 30.160156 23.699219 28.765625 26.234375 26.234375 C 28.765625 23.699219 30.160156 20.332031 30.160156 16.75 C 30.160156 13.167969 28.765625 9.800781 26.234375 7.269531 C 23.699219 4.734375 20.332031 3.339844 16.75 3.339844 Z M 16.75 3.339844 " fill-opacity="1" fill-rule="nonzero"/></g></svg>