<svg xmlns="http://www.w3.org/2000/svg" xmlns:xlink="http://www.w3.org/1999/xlink" width="290" zoomAndPan="magnify" viewBox="0 0 217.5 60" height="80" preserveAspectRatio="xMidYMid meet" version="1.0"><defs><g/><clipPath id="701f19bf9a"><path d="M 97.144531 7.664062 L 134.558594 7.664062 L 134.558594 45 L 97.144531 45 Z M 97.144531 7.664062 " clip-rule="nonzero"/></clipPath></defs><g fill="#eef1f1" fill-opacity="1"><g transform="translate(12.521957, 39.581678)"><g><path d="M 5.234375 -21.453125 L 8.265625 -21.453125 C 8.597656 -21.453125 8.828125 -21.390625 8.953125 -21.265625 C 9.078125 -21.140625 9.140625 -20.910156 9.140625 -20.578125 L 9.140625 -0.890625 C 9.140625 -0.546875 9.078125 -0.3125 8.953125 -0.1875 C 8.828125 -0.0625 8.597656 0 8.265625 0 L 5.234375 0 C 4.890625 0 4.65625 -0.0625 4.53125 -0.1875 C 4.40625 -0.3125 4.34375 -0.546875 4.34375 -0.890625 L 4.34375 -20.578125 C 4.34375 -20.910156 4.40625 -21.140625 4.53125 -21.265625 C 4.65625 -21.390625 4.890625 -21.453125 5.234375 -21.453125 Z M 3.75 -28.15625 C 3.75 -28.976562 4.035156 -29.679688 4.609375 -30.265625 C 5.191406 -30.859375 5.890625 -31.15625 6.703125 -31.15625 C 7.515625 -31.15625 8.207031 -30.859375 8.78125 -30.265625 C 9.363281 -29.679688 9.65625 -28.976562 9.65625 -28.15625 C 9.65625 -27.34375 9.363281 -26.65625 8.78125 -26.09375 C 8.207031 -25.53125 7.515625 -25.25 6.703125 -25.25 C 5.890625 -25.25 5.191406 -25.53125 4.609375 -26.09375 C 4.035156 -26.65625 3.75 -27.34375 3.75 -28.15625 Z M 3.75 -28.15625 "/></g></g></g><g fill="#eef1f1" fill-opacity="1"><g transform="translate(25.924149, 39.581678)"><g><path d="M 3.671875 -0.890625 L 3.671875 -20.578125 C 3.671875 -20.910156 3.734375 -21.140625 3.859375 -21.265625 C 3.984375 -21.390625 4.210938 -21.453125 4.546875 -21.453125 L 6.078125 -21.453125 C 6.347656 -21.453125 6.546875 -21.378906 6.671875 -21.234375 C 6.804688 -21.097656 6.957031 -20.878906 7.125 -20.578125 L 7.71875 -17.921875 C 8.132812 -18.484375 8.640625 -19.070312 9.234375 -19.6875 C 9.828125 -20.300781 10.539062 -20.828125 11.375 -21.265625 C 12.21875 -21.703125 13.234375 -21.921875 14.421875 -21.921875 C 15.960938 -21.921875 17.351562 -21.609375 18.59375 -20.984375 C 19.832031 -20.367188 20.804688 -19.351562 21.515625 -17.9375 C 22.234375 -16.519531 22.59375 -14.601562 22.59375 -12.1875 L 22.59375 -0.890625 C 22.59375 -0.546875 22.53125 -0.3125 22.40625 -0.1875 C 22.28125 -0.0625 22.046875 0 21.703125 0 L 18.671875 0 C 18.335938 0 18.109375 -0.0625 17.984375 -0.1875 C 17.859375 -0.3125 17.796875 -0.546875 17.796875 -0.890625 L 17.796875 -11.125 C 17.796875 -13.375 17.398438 -15.019531 16.609375 -16.0625 C 15.816406 -17.101562 14.675781 -17.625 13.1875 -17.625 C 11.644531 -17.625 10.472656 -17.019531 9.671875 -15.8125 C 8.867188 -14.601562 8.46875 -13 8.46875 -11 L 8.46875 -0.890625 C 8.46875 -0.546875 8.40625 -0.3125 8.28125 -0.1875 C 8.15625 -0.0625 7.925781 0 7.59375 0 L 4.546875 0 C 4.210938 0 3.984375 -0.0625 3.859375 -0.1875 C 3.734375 -0.3125 3.671875 -0.546875 3.671875 -0.890625 Z M 3.671875 -0.890625 "/></g></g></g><g fill="#eef1f1" fill-opacity="1"><g transform="translate(51.295588, 39.581678)"><g><path d="M 15.421875 -4.34375 C 15.734375 -4.507812 15.960938 -4.59375 16.109375 -4.59375 C 16.328125 -4.59375 16.476562 -4.34375 16.5625 -3.84375 L 16.953125 -1.734375 C 17.003906 -1.421875 17.007812 -1.1875 16.96875 -1.03125 C 16.925781 -0.875 16.765625 -0.726562 16.484375 -0.59375 C 15.640625 -0.0625 14.816406 0.242188 14.015625 0.328125 C 13.210938 0.421875 12.671875 0.46875 12.390625 0.46875 C 9.609375 0.46875 7.554688 -0.359375 6.234375 -2.015625 C 4.910156 -3.679688 4.25 -5.960938 4.25 -8.859375 L 4.25 -17.625 L 2.703125 -17.625 C 2.359375 -17.625 2.125 -17.6875 2 -17.8125 C 1.875 -17.9375 1.8125 -18.164062 1.8125 -18.5 L 1.8125 -20.578125 C 1.8125 -20.910156 1.875 -21.140625 2 -21.265625 C 2.125 -21.390625 2.359375 -21.453125 2.703125 -21.453125 L 4.25 -21.453125 L 4.25 -25.59375 C 4.25 -25.925781 4.304688 -26.15625 4.421875 -26.28125 C 4.535156 -26.40625 4.773438 -26.46875 5.140625 -26.46875 L 8.140625 -26.46875 C 8.472656 -26.46875 8.703125 -26.40625 8.828125 -26.28125 C 8.953125 -26.15625 9.015625 -25.925781 9.015625 -25.59375 L 9.015625 -21.453125 L 15.515625 -21.453125 C 15.847656 -21.453125 16.078125 -21.390625 16.203125 -21.265625 C 16.335938 -21.140625 16.40625 -20.894531 16.40625 -20.53125 L 16.40625 -18.5 C 16.40625 -18.164062 16.335938 -17.9375 16.203125 -17.8125 C 16.078125 -17.6875 15.847656 -17.625 15.515625 -17.625 L 9.015625 -17.625 L 9.015625 -9.140625 C 9.015625 -7.265625 9.335938 -5.910156 9.984375 -5.078125 C 10.628906 -4.253906 11.601562 -3.84375 12.90625 -3.84375 C 13.375 -3.84375 13.796875 -3.875 14.171875 -3.9375 C 14.554688 -4.007812 14.972656 -4.144531 15.421875 -4.34375 Z M 15.421875 -4.34375 "/></g></g></g><g fill="#eef1f1" fill-opacity="1"><g transform="translate(69.923785, 39.581678)"><g><path d="M 20.3125 -5.1875 L 21.546875 -3.671875 C 21.765625 -3.410156 21.890625 -3.203125 21.921875 -3.046875 C 21.953125 -2.898438 21.867188 -2.710938 21.671875 -2.484375 C 20.710938 -1.523438 19.4375 -0.789062 17.84375 -0.28125 C 16.257812 0.21875 14.695312 0.46875 13.15625 0.46875 C 11.039062 0.46875 9.125 -0.0351562 7.40625 -1.046875 C 5.695312 -2.066406 4.335938 -3.414062 3.328125 -5.09375 C 2.316406 -6.78125 1.8125 -8.648438 1.8125 -10.703125 C 1.8125 -12.253906 2.097656 -13.703125 2.671875 -15.046875 C 3.253906 -16.398438 4.054688 -17.585938 5.078125 -18.609375 C 6.109375 -19.640625 7.289062 -20.445312 8.625 -21.03125 C 9.957031 -21.625 11.394531 -21.921875 12.9375 -21.921875 C 15.25 -21.921875 17.175781 -21.375 18.71875 -20.28125 C 20.257812 -19.1875 21.421875 -17.738281 22.203125 -15.9375 C 22.992188 -14.132812 23.390625 -12.179688 23.390625 -10.078125 C 23.390625 -9.734375 23.34375 -9.488281 23.25 -9.34375 C 23.15625 -9.207031 22.921875 -9.140625 22.546875 -9.140625 L 6.78125 -9.140625 C 6.957031 -8.128906 7.347656 -7.207031 7.953125 -6.375 C 8.554688 -5.550781 9.320312 -4.894531 10.25 -4.40625 C 11.175781 -3.914062 12.1875 -3.671875 13.28125 -3.671875 C 14.007812 -3.671875 14.878906 -3.78125 15.890625 -4 C 16.898438 -4.226562 17.953125 -4.648438 19.046875 -5.265625 C 19.222656 -5.347656 19.363281 -5.414062 19.46875 -5.46875 C 19.582031 -5.53125 19.695312 -5.5625 19.8125 -5.5625 C 19.957031 -5.5625 20.125 -5.4375 20.3125 -5.1875 Z M 12.8125 -17.953125 C 11.632812 -17.953125 10.613281 -17.671875 9.75 -17.109375 C 8.894531 -16.546875 8.226562 -15.835938 7.75 -14.984375 C 7.28125 -14.128906 6.988281 -13.238281 6.875 -12.3125 L 18.5 -12.3125 C 18.414062 -13.238281 18.148438 -14.128906 17.703125 -14.984375 C 17.253906 -15.835938 16.625 -16.546875 15.8125 -17.109375 C 15 -17.671875 14 -17.953125 12.8125 -17.953125 Z M 12.8125 -17.953125 "/></g></g></g><g fill="#eef1f1" fill-opacity="1"><g transform="translate(94.880897, 39.581678)"><g/></g></g><g fill="#eef1f1" fill-opacity="1"><g transform="translate(105.543644, 39.581678)"><g/></g></g><g fill="#eef1f1" fill-opacity="1"><g transform="translate(116.206391, 39.581678)"><g/></g></g><g fill="#eef1f1" fill-opacity="1"><g transform="translate(126.869138, 39.581678)"><g/></g></g><g fill="#ffffff" fill-opacity="1"><g transform="translate(135.785042, 40.37615)"><g><path d="M 3.90625 -0.921875 L 3.90625 -31.46875 C 3.90625 -31.820312 3.96875 -32.0625 4.09375 -32.1875 C 4.226562 -32.320312 4.472656 -32.390625 4.828125 -32.390625 L 7.984375 -32.390625 C 8.367188 -32.390625 8.617188 -32.320312 8.734375 -32.1875 C 8.847656 -32.0625 8.90625 -31.820312 8.90625 -31.46875 L 8.90625 -0.921875 C 8.90625 -0.566406 8.835938 -0.320312 8.703125 -0.1875 C 8.578125 -0.0625 8.335938 0 7.984375 0 L 4.828125 0 C 4.472656 0 4.226562 -0.0625 4.09375 -0.1875 C 3.96875 -0.320312 3.90625 -0.566406 3.90625 -0.921875 Z M 3.90625 -0.921875 "/></g></g></g><g fill="#ffffff" fill-opacity="1"><g transform="translate(148.601285, 40.37615)"><g><path d="M 21.421875 0 L 19.578125 0 C 19.140625 0 18.800781 -0.304688 18.5625 -0.921875 L 18.265625 -2.984375 C 17.847656 -2.546875 17.285156 -2.054688 16.578125 -1.515625 C 15.878906 -0.972656 14.992188 -0.503906 13.921875 -0.109375 C 12.859375 0.285156 11.566406 0.484375 10.046875 0.484375 C 8.734375 0.484375 7.488281 0.210938 6.3125 -0.328125 C 5.144531 -0.867188 4.195312 -1.679688 3.46875 -2.765625 C 2.738281 -3.847656 2.375 -5.207031 2.375 -6.84375 C 2.375 -8.457031 2.753906 -9.78125 3.515625 -10.8125 C 4.273438 -11.851562 5.296875 -12.628906 6.578125 -13.140625 C 7.867188 -13.648438 9.304688 -13.90625 10.890625 -13.90625 C 11.828125 -13.90625 12.894531 -13.800781 14.09375 -13.59375 C 15.289062 -13.394531 16.375 -13.117188 17.34375 -12.765625 C 17.34375 -14.847656 17 -16.328125 16.3125 -17.203125 C 15.625 -18.078125 14.269531 -18.515625 12.25 -18.515625 C 10.988281 -18.515625 9.800781 -18.441406 8.6875 -18.296875 C 7.570312 -18.148438 6.609375 -18.003906 5.796875 -17.859375 C 5.410156 -17.859375 5.164062 -17.914062 5.0625 -18.03125 C 4.96875 -18.15625 4.859375 -18.390625 4.734375 -18.734375 L 4.21875 -20.84375 C 4.125 -21.195312 4.113281 -21.453125 4.1875 -21.609375 C 4.257812 -21.773438 4.457031 -21.898438 4.78125 -21.984375 C 4.957031 -22.046875 5.453125 -22.140625 6.265625 -22.265625 C 7.085938 -22.398438 8.054688 -22.523438 9.171875 -22.640625 C 10.285156 -22.765625 11.382812 -22.828125 12.46875 -22.828125 C 15.269531 -22.828125 17.375 -22.421875 18.78125 -21.609375 C 20.1875 -20.804688 21.128906 -19.613281 21.609375 -18.03125 C 22.097656 -16.457031 22.34375 -14.515625 22.34375 -12.203125 L 22.34375 -0.921875 C 22.34375 -0.566406 22.28125 -0.320312 22.15625 -0.1875 C 22.039062 -0.0625 21.796875 0 21.421875 0 Z M 12.0625 -10.359375 C 10.394531 -10.359375 9.1875 -10.03125 8.4375 -9.375 C 7.695312 -8.71875 7.328125 -7.875 7.328125 -6.84375 C 7.328125 -6 7.660156 -5.203125 8.328125 -4.453125 C 9.003906 -3.703125 10.101562 -3.328125 11.625 -3.328125 C 12.738281 -3.328125 13.804688 -3.640625 14.828125 -4.265625 C 15.859375 -4.898438 16.695312 -5.628906 17.34375 -6.453125 L 17.34375 -9.21875 C 16.40625 -9.539062 15.53125 -9.8125 14.71875 -10.03125 C 13.914062 -10.25 13.03125 -10.359375 12.0625 -10.359375 Z M 12.0625 -10.359375 "/></g></g></g><g fill="#ffffff" fill-opacity="1"><g transform="translate(173.794871, 40.37615)"><g><path d="M 32 -21.421875 L 25.109375 -0.484375 C 24.898438 0.160156 24.648438 0.484375 24.359375 0.484375 L 24.046875 0.484375 C 23.753906 0.484375 23.460938 0.160156 23.171875 -0.484375 L 16.28125 -15.453125 L 9.390625 -0.484375 C 9.035156 0.160156 8.742188 0.484375 8.515625 0.484375 L 8.203125 0.484375 C 7.910156 0.484375 7.664062 0.160156 7.46875 -0.484375 L 0.53125 -21.421875 C 0.382812 -21.773438 0.335938 -22.015625 0.390625 -22.140625 C 0.453125 -22.273438 0.644531 -22.34375 0.96875 -22.34375 L 4.78125 -22.34375 C 5.363281 -22.34375 5.742188 -22.078125 5.921875 -21.546875 L 9.5625 -9.703125 L 15.234375 -22.03125 C 15.378906 -22.269531 15.507812 -22.484375 15.625 -22.671875 C 15.738281 -22.859375 15.898438 -22.953125 16.109375 -22.953125 L 16.421875 -22.953125 C 16.648438 -22.953125 16.816406 -22.863281 16.921875 -22.6875 C 17.023438 -22.507812 17.148438 -22.289062 17.296875 -22.03125 L 22.953125 -9.703125 L 26.546875 -21.421875 C 26.753906 -22.035156 27.164062 -22.34375 27.78125 -22.34375 L 31.5625 -22.34375 C 31.882812 -22.34375 32.070312 -22.273438 32.125 -22.140625 C 32.1875 -22.015625 32.144531 -21.773438 32 -21.421875 Z M 32 -21.421875 "/></g></g></g><path fill="#f15a24" d="M 112.953125 28.925781 L 115.214844 28.925781 L 118.84375 35.769531 L 123.660156 35.769531 L 119.359375 28.160156 C 121.386719 27.242188 122.746094 25.46875 122.746094 22.671875 C 122.746094 18.148438 119.433594 16.746094 115.402344 16.746094 L 108.640625 16.746094 L 108.640625 35.769531 L 112.953125 35.769531 Z M 112.953125 20.164062 L 115.050781 20.164062 C 117.3125 20.164062 118.527344 20.796875 118.527344 22.671875 C 118.527344 24.535156 117.3125 25.507812 115.050781 25.507812 L 112.953125 25.507812 Z M 112.953125 20.164062 " fill-opacity="1" fill-rule="nonzero"/><g clip-path="url(#701f19bf9a)"><path fill="#f15a24" d="M 115.738281 44.855469 C 110.773438 44.855469 106.101562 42.921875 102.589844 39.40625 C 99.078125 35.894531 97.140625 31.226562 97.140625 26.257812 C 97.140625 21.289062 99.078125 16.621094 102.589844 13.109375 C 106.101562 9.597656 110.773438 7.660156 115.738281 7.660156 C 120.707031 7.660156 125.375 9.597656 128.890625 13.109375 C 132.402344 16.621094 134.335938 21.289062 134.335938 26.257812 C 134.335938 31.226562 132.402344 35.894531 128.890625 39.40625 C 125.375 42.921875 120.707031 44.855469 115.738281 44.855469 Z M 115.738281 10.496094 C 111.527344 10.496094 107.570312 12.136719 104.59375 15.113281 C 101.617188 18.089844 99.976562 22.046875 99.976562 26.257812 C 99.976562 30.46875 101.617188 34.425781 104.59375 37.40625 C 107.570312 40.382812 111.527344 42.019531 115.738281 42.019531 C 119.949219 42.019531 123.90625 40.382812 126.886719 37.40625 C 129.863281 34.425781 131.5 30.46875 131.5 26.257812 C 131.5 22.046875 129.863281 18.089844 126.886719 15.113281 C 123.90625 12.136719 119.949219 10.496094 115.738281 10.496094 Z M 115.738281 10.496094 " fill-opacity="1" fill-rule="nonzero"/></g><g fill="#ffffff" fill-opacity="1"><g transform="translate(16.680755, 54.67221)"><g><path d="M 1.046875 -6.40625 L 3.203125 -6.40625 C 3.484375 -6.40625 3.753906 -6.375 4.015625 -6.3125 C 4.285156 -6.25 4.523438 -6.144531 4.734375 -6 C 4.953125 -5.851562 5.125 -5.65625 5.25 -5.40625 C 5.382812 -5.164062 5.453125 -4.859375 5.453125 -4.484375 C 5.453125 -4.117188 5.382812 -3.804688 5.25 -3.546875 C 5.125 -3.296875 4.953125 -3.09375 4.734375 -2.9375 C 4.523438 -2.789062 4.285156 -2.679688 4.015625 -2.609375 C 3.753906 -2.535156 3.484375 -2.5 3.203125 -2.5 L 1.625 -2.5 L 1.625 -0.140625 C 1.625 -0.0859375 1.613281 -0.0507812 1.59375 -0.03125 C 1.582031 -0.0078125 1.546875 0 1.484375 0 L 1.046875 0 C 0.984375 0 0.941406 -0.0078125 0.921875 -0.03125 C 0.910156 -0.0507812 0.90625 -0.0859375 0.90625 -0.140625 L 0.90625 -6.25 C 0.90625 -6.320312 0.914062 -6.363281 0.9375 -6.375 C 0.957031 -6.394531 0.992188 -6.40625 1.046875 -6.40625 Z M 3.15625 -5.78125 L 1.625 -5.78125 L 1.625 -3.125 L 3.15625 -3.125 C 3.582031 -3.125 3.910156 -3.1875 4.140625 -3.3125 C 4.367188 -3.445312 4.523438 -3.617188 4.609375 -3.828125 C 4.703125 -4.035156 4.75 -4.253906 4.75 -4.484375 C 4.75 -4.703125 4.703125 -4.910156 4.609375 -5.109375 C 4.523438 -5.304688 4.367188 -5.46875 4.140625 -5.59375 C 3.910156 -5.71875 3.582031 -5.78125 3.15625 -5.78125 Z M 3.15625 -5.78125 "/></g></g></g><g fill="#ffffff" fill-opacity="1"><g transform="translate(22.349429, 54.67221)"><g><path d="M 3.4375 -4.75 C 3.5 -4.75 3.535156 -4.738281 3.546875 -4.71875 C 3.566406 -4.707031 3.570312 -4.675781 3.5625 -4.625 L 3.515625 -4.21875 C 3.492188 -4.15625 3.472656 -4.113281 3.453125 -4.09375 C 3.429688 -4.082031 3.394531 -4.078125 3.34375 -4.078125 C 2.945312 -4.078125 2.617188 -3.992188 2.359375 -3.828125 C 2.097656 -3.671875 1.90625 -3.460938 1.78125 -3.203125 C 1.65625 -2.953125 1.59375 -2.679688 1.59375 -2.390625 L 1.59375 -0.140625 C 1.59375 -0.046875 1.546875 0 1.453125 0 L 1.046875 0 C 0.953125 0 0.90625 -0.046875 0.90625 -0.140625 L 0.90625 -4.5 C 0.90625 -4.601562 0.953125 -4.65625 1.046875 -4.65625 L 1.265625 -4.65625 C 1.328125 -4.65625 1.378906 -4.601562 1.421875 -4.5 L 1.53125 -3.59375 C 1.582031 -3.6875 1.648438 -3.796875 1.734375 -3.921875 C 1.816406 -4.054688 1.925781 -4.1875 2.0625 -4.3125 C 2.207031 -4.4375 2.390625 -4.539062 2.609375 -4.625 C 2.835938 -4.707031 3.113281 -4.75 3.4375 -4.75 Z M 3.4375 -4.75 "/></g></g></g><g fill="#ffffff" fill-opacity="1"><g transform="translate(26.134638, 54.67221)"><g><path d="M 2.84375 -4.75 C 3.175781 -4.75 3.488281 -4.6875 3.78125 -4.5625 C 4.070312 -4.4375 4.328125 -4.257812 4.546875 -4.03125 C 4.765625 -3.8125 4.9375 -3.554688 5.0625 -3.265625 C 5.1875 -2.972656 5.25 -2.660156 5.25 -2.328125 C 5.25 -1.878906 5.140625 -1.472656 4.921875 -1.109375 C 4.703125 -0.742188 4.410156 -0.453125 4.046875 -0.234375 C 3.691406 -0.015625 3.289062 0.09375 2.84375 0.09375 C 2.394531 0.09375 1.988281 -0.015625 1.625 -0.234375 C 1.269531 -0.453125 0.984375 -0.742188 0.765625 -1.109375 C 0.546875 -1.472656 0.4375 -1.878906 0.4375 -2.328125 C 0.4375 -2.660156 0.5 -2.972656 0.625 -3.265625 C 0.75 -3.554688 0.921875 -3.8125 1.140625 -4.03125 C 1.359375 -4.257812 1.613281 -4.4375 1.90625 -4.5625 C 2.195312 -4.6875 2.507812 -4.75 2.84375 -4.75 Z M 2.84375 -4.125 C 2.53125 -4.125 2.242188 -4.039062 1.984375 -3.875 C 1.722656 -3.71875 1.515625 -3.503906 1.359375 -3.234375 C 1.203125 -2.960938 1.125 -2.660156 1.125 -2.328125 C 1.125 -1.984375 1.203125 -1.675781 1.359375 -1.40625 C 1.515625 -1.132812 1.722656 -0.914062 1.984375 -0.75 C 2.242188 -0.59375 2.53125 -0.515625 2.84375 -0.515625 C 3.164062 -0.515625 3.457031 -0.59375 3.71875 -0.75 C 3.976562 -0.914062 4.1875 -1.132812 4.34375 -1.40625 C 4.5 -1.675781 4.578125 -1.984375 4.578125 -2.328125 C 4.578125 -2.660156 4.5 -2.960938 4.34375 -3.234375 C 4.1875 -3.503906 3.976562 -3.71875 3.71875 -3.875 C 3.457031 -4.039062 3.164062 -4.125 2.84375 -4.125 Z M 2.84375 -4.125 "/></g></g></g><g fill="#ffffff" fill-opacity="1"><g transform="translate(31.821592, 54.67221)"><g><path d="M 1.6875 -4.65625 L 3.34375 -4.65625 C 3.394531 -4.65625 3.429688 -4.644531 3.453125 -4.625 C 3.472656 -4.601562 3.484375 -4.5625 3.484375 -4.5 L 3.484375 -4.234375 C 3.484375 -4.128906 3.4375 -4.078125 3.34375 -4.078125 L 1.6875 -4.078125 L 1.6875 -1.984375 C 1.6875 -1.441406 1.769531 -1.0625 1.9375 -0.84375 C 2.101562 -0.625 2.375 -0.515625 2.75 -0.515625 C 2.875 -0.515625 2.976562 -0.519531 3.0625 -0.53125 C 3.15625 -0.550781 3.257812 -0.59375 3.375 -0.65625 C 3.414062 -0.675781 3.445312 -0.6875 3.46875 -0.6875 C 3.507812 -0.6875 3.539062 -0.648438 3.5625 -0.578125 L 3.609375 -0.296875 C 3.628906 -0.210938 3.609375 -0.15625 3.546875 -0.125 C 3.359375 -0.0078125 3.179688 0.0507812 3.015625 0.0625 C 2.847656 0.0820312 2.734375 0.09375 2.671875 0.09375 C 2.066406 0.09375 1.640625 -0.0820312 1.390625 -0.4375 C 1.140625 -0.800781 1.015625 -1.296875 1.015625 -1.921875 L 1.015625 -4.078125 L 0.5625 -4.078125 C 0.46875 -4.078125 0.421875 -4.128906 0.421875 -4.234375 L 0.421875 -4.5 C 0.421875 -4.5625 0.429688 -4.601562 0.453125 -4.625 C 0.472656 -4.644531 0.507812 -4.65625 0.5625 -4.65625 L 1.015625 -4.65625 L 1.015625 -5.59375 C 1.015625 -5.6875 1.0625 -5.734375 1.15625 -5.734375 L 1.546875 -5.734375 C 1.640625 -5.734375 1.6875 -5.6875 1.6875 -5.59375 Z M 1.6875 -4.65625 "/></g></g></g><g fill="#ffffff" fill-opacity="1"><g transform="translate(35.826229, 54.67221)"><g><path d="M 4.546875 -0.953125 L 4.71875 -0.734375 C 4.78125 -0.660156 4.78125 -0.597656 4.71875 -0.546875 C 4.507812 -0.335938 4.234375 -0.175781 3.890625 -0.0625 C 3.554688 0.0390625 3.21875 0.09375 2.875 0.09375 C 2.414062 0.09375 2.003906 -0.015625 1.640625 -0.234375 C 1.273438 -0.453125 0.984375 -0.742188 0.765625 -1.109375 C 0.546875 -1.472656 0.4375 -1.878906 0.4375 -2.328125 C 0.4375 -2.765625 0.539062 -3.164062 0.75 -3.53125 C 0.96875 -3.90625 1.257812 -4.203125 1.625 -4.421875 C 1.988281 -4.640625 2.390625 -4.75 2.828125 -4.75 C 3.304688 -4.75 3.710938 -4.632812 4.046875 -4.40625 C 4.390625 -4.175781 4.648438 -3.867188 4.828125 -3.484375 C 5.003906 -3.109375 5.09375 -2.691406 5.09375 -2.234375 C 5.09375 -2.171875 5.082031 -2.128906 5.0625 -2.109375 C 5.050781 -2.085938 5.015625 -2.078125 4.953125 -2.078125 L 1.140625 -2.078125 C 1.160156 -1.796875 1.25 -1.535156 1.40625 -1.296875 C 1.570312 -1.054688 1.785156 -0.863281 2.046875 -0.71875 C 2.316406 -0.570312 2.601562 -0.5 2.90625 -0.5 C 3.132812 -0.5 3.375 -0.535156 3.625 -0.609375 C 3.882812 -0.679688 4.125 -0.796875 4.34375 -0.953125 C 4.375 -0.972656 4.394531 -0.984375 4.40625 -0.984375 C 4.425781 -0.992188 4.441406 -1 4.453125 -1 C 4.484375 -1 4.515625 -0.984375 4.546875 -0.953125 Z M 2.828125 -4.171875 C 2.515625 -4.171875 2.234375 -4.09375 1.984375 -3.9375 C 1.734375 -3.789062 1.535156 -3.59375 1.390625 -3.34375 C 1.242188 -3.09375 1.164062 -2.832031 1.15625 -2.5625 L 4.390625 -2.5625 C 4.378906 -2.832031 4.304688 -3.09375 4.171875 -3.34375 C 4.035156 -3.59375 3.851562 -3.789062 3.625 -3.9375 C 3.40625 -4.09375 3.140625 -4.171875 2.828125 -4.171875 Z M 2.828125 -4.171875 "/></g></g></g><g fill="#ffffff" fill-opacity="1"><g transform="translate(41.312035, 54.67221)"><g><path d="M 4.3125 -1 L 4.53125 -0.78125 C 4.59375 -0.707031 4.59375 -0.640625 4.53125 -0.578125 C 4.289062 -0.347656 4.023438 -0.175781 3.734375 -0.0625 C 3.453125 0.0390625 3.148438 0.09375 2.828125 0.09375 C 2.390625 0.09375 1.988281 -0.015625 1.625 -0.234375 C 1.257812 -0.453125 0.96875 -0.742188 0.75 -1.109375 C 0.539062 -1.472656 0.4375 -1.878906 0.4375 -2.328125 C 0.4375 -2.765625 0.539062 -3.164062 0.75 -3.53125 C 0.96875 -3.90625 1.257812 -4.203125 1.625 -4.421875 C 1.988281 -4.640625 2.390625 -4.75 2.828125 -4.75 C 3.148438 -4.75 3.453125 -4.691406 3.734375 -4.578125 C 4.023438 -4.472656 4.289062 -4.300781 4.53125 -4.0625 C 4.59375 -4.007812 4.59375 -3.945312 4.53125 -3.875 L 4.3125 -3.640625 C 4.269531 -3.597656 4.234375 -3.578125 4.203125 -3.578125 C 4.171875 -3.578125 4.140625 -3.59375 4.109375 -3.625 C 3.960938 -3.78125 3.773438 -3.898438 3.546875 -3.984375 C 3.328125 -4.078125 3.09375 -4.125 2.84375 -4.125 C 2.53125 -4.125 2.238281 -4.039062 1.96875 -3.875 C 1.707031 -3.71875 1.5 -3.503906 1.34375 -3.234375 C 1.1875 -2.960938 1.109375 -2.660156 1.109375 -2.328125 C 1.109375 -1.984375 1.1875 -1.675781 1.34375 -1.40625 C 1.5 -1.132812 1.707031 -0.914062 1.96875 -0.75 C 2.238281 -0.59375 2.53125 -0.515625 2.84375 -0.515625 C 3.09375 -0.515625 3.328125 -0.5625 3.546875 -0.65625 C 3.773438 -0.75 3.960938 -0.875 4.109375 -1.03125 C 4.140625 -1.0625 4.171875 -1.078125 4.203125 -1.078125 C 4.234375 -1.078125 4.269531 -1.050781 4.3125 -1 Z M 4.3125 -1 "/></g></g></g><g fill="#ffffff" fill-opacity="1"><g transform="translate(46.258404, 54.67221)"><g><path d="M 1.6875 -4.65625 L 3.34375 -4.65625 C 3.394531 -4.65625 3.429688 -4.644531 3.453125 -4.625 C 3.472656 -4.601562 3.484375 -4.5625 3.484375 -4.5 L 3.484375 -4.234375 C 3.484375 -4.128906 3.4375 -4.078125 3.34375 -4.078125 L 1.6875 -4.078125 L 1.6875 -1.984375 C 1.6875 -1.441406 1.769531 -1.0625 1.9375 -0.84375 C 2.101562 -0.625 2.375 -0.515625 2.75 -0.515625 C 2.875 -0.515625 2.976562 -0.519531 3.0625 -0.53125 C 3.15625 -0.550781 3.257812 -0.59375 3.375 -0.65625 C 3.414062 -0.675781 3.445312 -0.6875 3.46875 -0.6875 C 3.507812 -0.6875 3.539062 -0.648438 3.5625 -0.578125 L 3.609375 -0.296875 C 3.628906 -0.210938 3.609375 -0.15625 3.546875 -0.125 C 3.359375 -0.0078125 3.179688 0.0507812 3.015625 0.0625 C 2.847656 0.0820312 2.734375 0.09375 2.671875 0.09375 C 2.066406 0.09375 1.640625 -0.0820312 1.390625 -0.4375 C 1.140625 -0.800781 1.015625 -1.296875 1.015625 -1.921875 L 1.015625 -4.078125 L 0.5625 -4.078125 C 0.46875 -4.078125 0.421875 -4.128906 0.421875 -4.234375 L 0.421875 -4.5 C 0.421875 -4.5625 0.429688 -4.601562 0.453125 -4.625 C 0.472656 -4.644531 0.507812 -4.65625 0.5625 -4.65625 L 1.015625 -4.65625 L 1.015625 -5.59375 C 1.015625 -5.6875 1.0625 -5.734375 1.15625 -5.734375 L 1.546875 -5.734375 C 1.640625 -5.734375 1.6875 -5.6875 1.6875 -5.59375 Z M 1.6875 -4.65625 "/></g></g></g><g fill="#ffffff" fill-opacity="1"><g transform="translate(50.263042, 54.67221)"><g/></g></g><g fill="#ffffff" fill-opacity="1"><g transform="translate(52.576228, 54.67221)"><g><path d="M 4.078125 -4.65625 L 4.546875 -4.65625 C 4.648438 -4.65625 4.675781 -4.601562 4.625 -4.5 L 1.859375 1.71875 C 1.828125 1.78125 1.796875 1.816406 1.765625 1.828125 C 1.742188 1.847656 1.707031 1.859375 1.65625 1.859375 L 1.203125 1.859375 C 1.097656 1.859375 1.070312 1.8125 1.125 1.71875 L 2 -0.234375 L 0.078125 -4.5 C 0.0351562 -4.601562 0.0625 -4.65625 0.15625 -4.65625 L 0.625 -4.65625 C 0.675781 -4.65625 0.710938 -4.644531 0.734375 -4.625 C 0.765625 -4.601562 0.789062 -4.5625 0.8125 -4.5 L 2.359375 -1.015625 L 2.375 -1.015625 L 3.890625 -4.5 C 3.921875 -4.5625 3.945312 -4.601562 3.96875 -4.625 C 4 -4.644531 4.035156 -4.65625 4.078125 -4.65625 Z M 4.078125 -4.65625 "/></g></g></g><g fill="#ffffff" fill-opacity="1"><g transform="translate(57.294024, 54.67221)"><g><path d="M 2.84375 -4.75 C 3.175781 -4.75 3.488281 -4.6875 3.78125 -4.5625 C 4.070312 -4.4375 4.328125 -4.257812 4.546875 -4.03125 C 4.765625 -3.8125 4.9375 -3.554688 5.0625 -3.265625 C 5.1875 -2.972656 5.25 -2.660156 5.25 -2.328125 C 5.25 -1.878906 5.140625 -1.472656 4.921875 -1.109375 C 4.703125 -0.742188 4.410156 -0.453125 4.046875 -0.234375 C 3.691406 -0.015625 3.289062 0.09375 2.84375 0.09375 C 2.394531 0.09375 1.988281 -0.015625 1.625 -0.234375 C 1.269531 -0.453125 0.984375 -0.742188 0.765625 -1.109375 C 0.546875 -1.472656 0.4375 -1.878906 0.4375 -2.328125 C 0.4375 -2.660156 0.5 -2.972656 0.625 -3.265625 C 0.75 -3.554688 0.921875 -3.8125 1.140625 -4.03125 C 1.359375 -4.257812 1.613281 -4.4375 1.90625 -4.5625 C 2.195312 -4.6875 2.507812 -4.75 2.84375 -4.75 Z M 2.84375 -4.125 C 2.53125 -4.125 2.242188 -4.039062 1.984375 -3.875 C 1.722656 -3.71875 1.515625 -3.503906 1.359375 -3.234375 C 1.203125 -2.960938 1.125 -2.660156 1.125 -2.328125 C 1.125 -1.984375 1.203125 -1.675781 1.359375 -1.40625 C 1.515625 -1.132812 1.722656 -0.914062 1.984375 -0.75 C 2.242188 -0.59375 2.53125 -0.515625 2.84375 -0.515625 C 3.164062 -0.515625 3.457031 -0.59375 3.71875 -0.75 C 3.976562 -0.914062 4.1875 -1.132812 4.34375 -1.40625 C 4.5 -1.675781 4.578125 -1.984375 4.578125 -2.328125 C 4.578125 -2.660156 4.5 -2.960938 4.34375 -3.234375 C 4.1875 -3.503906 3.976562 -3.71875 3.71875 -3.875 C 3.457031 -4.039062 3.164062 -4.125 2.84375 -4.125 Z M 2.84375 -4.125 "/></g></g></g><g fill="#ffffff" fill-opacity="1"><g transform="translate(62.980978, 54.67221)"><g><path d="M 2.46875 0.09375 C 2.144531 0.09375 1.84375 0.0234375 1.5625 -0.109375 C 1.289062 -0.242188 1.070312 -0.460938 0.90625 -0.765625 C 0.738281 -1.066406 0.65625 -1.460938 0.65625 -1.953125 L 0.65625 -4.5 C 0.65625 -4.601562 0.703125 -4.65625 0.796875 -4.65625 L 1.203125 -4.65625 C 1.296875 -4.65625 1.34375 -4.601562 1.34375 -4.5 L 1.34375 -2.140625 C 1.34375 -1.597656 1.460938 -1.191406 1.703125 -0.921875 C 1.953125 -0.648438 2.257812 -0.515625 2.625 -0.515625 C 2.894531 -0.515625 3.128906 -0.59375 3.328125 -0.75 C 3.523438 -0.90625 3.675781 -1.109375 3.78125 -1.359375 C 3.882812 -1.617188 3.9375 -1.898438 3.9375 -2.203125 L 3.9375 -4.5 C 3.9375 -4.601562 3.984375 -4.65625 4.078125 -4.65625 L 4.484375 -4.65625 C 4.578125 -4.65625 4.625 -4.601562 4.625 -4.5 L 4.625 -0.140625 C 4.625 -0.046875 4.578125 0 4.484375 0 L 4.265625 0 C 4.203125 0 4.148438 -0.046875 4.109375 -0.140625 L 4.03125 -0.96875 C 3.96875 -0.84375 3.867188 -0.695312 3.734375 -0.53125 C 3.609375 -0.363281 3.441406 -0.21875 3.234375 -0.09375 C 3.023438 0.03125 2.769531 0.09375 2.46875 0.09375 Z M 2.46875 0.09375 "/></g></g></g><g fill="#ffffff" fill-opacity="1"><g transform="translate(68.5125, 54.67221)"><g><path d="M 3.4375 -4.75 C 3.5 -4.75 3.535156 -4.738281 3.546875 -4.71875 C 3.566406 -4.707031 3.570312 -4.675781 3.5625 -4.625 L 3.515625 -4.21875 C 3.492188 -4.15625 3.472656 -4.113281 3.453125 -4.09375 C 3.429688 -4.082031 3.394531 -4.078125 3.34375 -4.078125 C 2.945312 -4.078125 2.617188 -3.992188 2.359375 -3.828125 C 2.097656 -3.671875 1.90625 -3.460938 1.78125 -3.203125 C 1.65625 -2.953125 1.59375 -2.679688 1.59375 -2.390625 L 1.59375 -0.140625 C 1.59375 -0.046875 1.546875 0 1.453125 0 L 1.046875 0 C 0.953125 0 0.90625 -0.046875 0.90625 -0.140625 L 0.90625 -4.5 C 0.90625 -4.601562 0.953125 -4.65625 1.046875 -4.65625 L 1.265625 -4.65625 C 1.328125 -4.65625 1.378906 -4.601562 1.421875 -4.5 L 1.53125 -3.59375 C 1.582031 -3.6875 1.648438 -3.796875 1.734375 -3.921875 C 1.816406 -4.054688 1.925781 -4.1875 2.0625 -4.3125 C 2.207031 -4.4375 2.390625 -4.539062 2.609375 -4.625 C 2.835938 -4.707031 3.113281 -4.75 3.4375 -4.75 Z M 3.4375 -4.75 "/></g></g></g><g fill="#ffffff" fill-opacity="1"><g transform="translate(72.29771, 54.67221)"><g/></g></g><g fill="#ffffff" fill-opacity="1"><g transform="translate(74.610896, 54.67221)"><g><path d="M 4.65625 -2.5 L 4.65625 -0.140625 C 4.65625 -0.046875 4.609375 0 4.515625 0 L 4.109375 0 C 4.015625 0 3.96875 -0.046875 3.96875 -0.140625 L 3.96875 -2.515625 C 3.96875 -2.992188 3.863281 -3.378906 3.65625 -3.671875 C 3.445312 -3.972656 3.148438 -4.125 2.765625 -4.125 C 2.398438 -4.125 2.109375 -3.96875 1.890625 -3.65625 C 1.679688 -3.34375 1.578125 -2.941406 1.578125 -2.453125 L 1.578125 -0.140625 C 1.578125 -0.046875 1.53125 0 1.4375 0 L 1.03125 0 C 0.9375 0 0.890625 -0.046875 0.890625 -0.140625 L 0.890625 -4.5 C 0.890625 -4.601562 0.9375 -4.65625 1.03125 -4.65625 L 1.25 -4.65625 C 1.3125 -4.65625 1.363281 -4.601562 1.40625 -4.5 L 1.484375 -3.65625 C 1.535156 -3.78125 1.617188 -3.929688 1.734375 -4.109375 C 1.847656 -4.285156 2.003906 -4.4375 2.203125 -4.5625 C 2.398438 -4.6875 2.644531 -4.75 2.9375 -4.75 C 3.226562 -4.75 3.476562 -4.6875 3.6875 -4.5625 C 3.90625 -4.4375 4.078125 -4.285156 4.203125 -4.109375 C 4.328125 -3.929688 4.421875 -3.769531 4.484375 -3.625 C 4.546875 -3.769531 4.640625 -3.925781 4.765625 -4.09375 C 4.898438 -4.269531 5.066406 -4.421875 5.265625 -4.546875 C 5.472656 -4.679688 5.722656 -4.75 6.015625 -4.75 C 6.316406 -4.75 6.597656 -4.675781 6.859375 -4.53125 C 7.117188 -4.394531 7.328125 -4.175781 7.484375 -3.875 C 7.648438 -3.570312 7.734375 -3.179688 7.734375 -2.703125 L 7.734375 -0.140625 C 7.734375 -0.046875 7.6875 0 7.59375 0 L 7.1875 0 C 7.09375 0 7.046875 -0.046875 7.046875 -0.140625 L 7.046875 -2.515625 C 7.046875 -3.054688 6.925781 -3.457031 6.6875 -3.71875 C 6.445312 -3.988281 6.164062 -4.125 5.84375 -4.125 C 5.507812 -4.125 5.226562 -3.976562 5 -3.6875 C 4.769531 -3.394531 4.65625 -3 4.65625 -2.5 Z M 4.65625 -2.5 "/></g></g></g><g fill="#ffffff" fill-opacity="1"><g transform="translate(83.004187, 54.67221)"><g><path d="M 2.84375 -4.75 C 3.175781 -4.75 3.488281 -4.6875 3.78125 -4.5625 C 4.070312 -4.4375 4.328125 -4.257812 4.546875 -4.03125 C 4.765625 -3.8125 4.9375 -3.554688 5.0625 -3.265625 C 5.1875 -2.972656 5.25 -2.660156 5.25 -2.328125 C 5.25 -1.878906 5.140625 -1.472656 4.921875 -1.109375 C 4.703125 -0.742188 4.410156 -0.453125 4.046875 -0.234375 C 3.691406 -0.015625 3.289062 0.09375 2.84375 0.09375 C 2.394531 0.09375 1.988281 -0.015625 1.625 -0.234375 C 1.269531 -0.453125 0.984375 -0.742188 0.765625 -1.109375 C 0.546875 -1.472656 0.4375 -1.878906 0.4375 -2.328125 C 0.4375 -2.660156 0.5 -2.972656 0.625 -3.265625 C 0.75 -3.554688 0.921875 -3.8125 1.140625 -4.03125 C 1.359375 -4.257812 1.613281 -4.4375 1.90625 -4.5625 C 2.195312 -4.6875 2.507812 -4.75 2.84375 -4.75 Z M 2.84375 -4.125 C 2.53125 -4.125 2.242188 -4.039062 1.984375 -3.875 C 1.722656 -3.71875 1.515625 -3.503906 1.359375 -3.234375 C 1.203125 -2.960938 1.125 -2.660156 1.125 -2.328125 C 1.125 -1.984375 1.203125 -1.675781 1.359375 -1.40625 C 1.515625 -1.132812 1.722656 -0.914062 1.984375 -0.75 C 2.242188 -0.59375 2.53125 -0.515625 2.84375 -0.515625 C 3.164062 -0.515625 3.457031 -0.59375 3.71875 -0.75 C 3.976562 -0.914062 4.1875 -1.132812 4.34375 -1.40625 C 4.5 -1.675781 4.578125 -1.984375 4.578125 -2.328125 C 4.578125 -2.660156 4.5 -2.960938 4.34375 -3.234375 C 4.1875 -3.503906 3.976562 -3.71875 3.71875 -3.875 C 3.457031 -4.039062 3.164062 -4.125 2.84375 -4.125 Z M 2.84375 -4.125 "/></g></g></g><g fill="#ffffff" fill-opacity="1"><g transform="translate(88.691141, 54.67221)"><g><path d="M 4.0625 -4.046875 L 3.953125 -3.828125 C 3.921875 -3.753906 3.882812 -3.71875 3.84375 -3.71875 C 3.8125 -3.71875 3.78125 -3.726562 3.75 -3.75 C 3.5 -3.90625 3.269531 -4.019531 3.0625 -4.09375 C 2.863281 -4.164062 2.613281 -4.203125 2.3125 -4.203125 C 1.925781 -4.203125 1.640625 -4.125 1.453125 -3.96875 C 1.265625 -3.8125 1.171875 -3.609375 1.171875 -3.359375 C 1.171875 -3.109375 1.28125 -2.941406 1.5 -2.859375 C 1.726562 -2.785156 2.046875 -2.71875 2.453125 -2.65625 C 2.765625 -2.613281 3.054688 -2.546875 3.328125 -2.453125 C 3.597656 -2.359375 3.816406 -2.222656 3.984375 -2.046875 C 4.148438 -1.878906 4.234375 -1.644531 4.234375 -1.34375 C 4.234375 -0.925781 4.066406 -0.582031 3.734375 -0.3125 C 3.410156 -0.0390625 2.957031 0.09375 2.375 0.09375 C 2.125 0.09375 1.832031 0.0546875 1.5 -0.015625 C 1.164062 -0.0976562 0.828125 -0.253906 0.484375 -0.484375 C 0.421875 -0.523438 0.410156 -0.59375 0.453125 -0.6875 L 0.578125 -0.921875 C 0.617188 -0.984375 0.65625 -1.015625 0.6875 -1.015625 C 0.707031 -1.015625 0.738281 -1 0.78125 -0.96875 C 0.988281 -0.832031 1.222656 -0.710938 1.484375 -0.609375 C 1.753906 -0.503906 2.035156 -0.453125 2.328125 -0.453125 C 2.773438 -0.453125 3.09375 -0.535156 3.28125 -0.703125 C 3.476562 -0.867188 3.578125 -1.070312 3.578125 -1.3125 C 3.578125 -1.507812 3.46875 -1.664062 3.25 -1.78125 C 3.03125 -1.894531 2.710938 -1.976562 2.296875 -2.03125 C 1.992188 -2.082031 1.707031 -2.144531 1.4375 -2.21875 C 1.164062 -2.289062 0.941406 -2.414062 0.765625 -2.59375 C 0.597656 -2.769531 0.515625 -3.015625 0.515625 -3.328125 C 0.515625 -3.753906 0.671875 -4.097656 0.984375 -4.359375 C 1.304688 -4.617188 1.738281 -4.75 2.28125 -4.75 C 2.507812 -4.75 2.773438 -4.710938 3.078125 -4.640625 C 3.390625 -4.566406 3.703125 -4.429688 4.015625 -4.234375 C 4.078125 -4.210938 4.109375 -4.1875 4.109375 -4.15625 C 4.109375 -4.125 4.09375 -4.085938 4.0625 -4.046875 Z M 4.0625 -4.046875 "/></g></g></g><g fill="#ffffff" fill-opacity="1"><g transform="translate(93.335794, 54.67221)"><g><path d="M 1.6875 -4.65625 L 3.34375 -4.65625 C 3.394531 -4.65625 3.429688 -4.644531 3.453125 -4.625 C 3.472656 -4.601562 3.484375 -4.5625 3.484375 -4.5 L 3.484375 -4.234375 C 3.484375 -4.128906 3.4375 -4.078125 3.34375 -4.078125 L 1.6875 -4.078125 L 1.6875 -1.984375 C 1.6875 -1.441406 1.769531 -1.0625 1.9375 -0.84375 C 2.101562 -0.625 2.375 -0.515625 2.75 -0.515625 C 2.875 -0.515625 2.976562 -0.519531 3.0625 -0.53125 C 3.15625 -0.550781 3.257812 -0.59375 3.375 -0.65625 C 3.414062 -0.675781 3.445312 -0.6875 3.46875 -0.6875 C 3.507812 -0.6875 3.539062 -0.648438 3.5625 -0.578125 L 3.609375 -0.296875 C 3.628906 -0.210938 3.609375 -0.15625 3.546875 -0.125 C 3.359375 -0.0078125 3.179688 0.0507812 3.015625 0.0625 C 2.847656 0.0820312 2.734375 0.09375 2.671875 0.09375 C 2.066406 0.09375 1.640625 -0.0820312 1.390625 -0.4375 C 1.140625 -0.800781 1.015625 -1.296875 1.015625 -1.921875 L 1.015625 -4.078125 L 0.5625 -4.078125 C 0.46875 -4.078125 0.421875 -4.128906 0.421875 -4.234375 L 0.421875 -4.5 C 0.421875 -4.5625 0.429688 -4.601562 0.453125 -4.625 C 0.472656 -4.644531 0.507812 -4.65625 0.5625 -4.65625 L 1.015625 -4.65625 L 1.015625 -5.59375 C 1.015625 -5.6875 1.0625 -5.734375 1.15625 -5.734375 L 1.546875 -5.734375 C 1.640625 -5.734375 1.6875 -5.6875 1.6875 -5.59375 Z M 1.6875 -4.65625 "/></g></g></g><g fill="#ffffff" fill-opacity="1"><g transform="translate(97.340431, 54.67221)"><g/></g></g><g fill="#ffffff" fill-opacity="1"><g transform="translate(99.653618, 54.67221)"><g><path d="M 4.0625 -4.65625 L 4.53125 -4.65625 C 4.570312 -4.65625 4.597656 -4.640625 4.609375 -4.609375 C 4.628906 -4.578125 4.628906 -4.539062 4.609375 -4.5 L 2.484375 0.03125 C 2.453125 0.0703125 2.429688 0.101562 2.421875 0.125 C 2.410156 0.144531 2.390625 0.15625 2.359375 0.15625 L 2.328125 0.15625 C 2.304688 0.15625 2.289062 0.144531 2.28125 0.125 C 2.269531 0.101562 2.25 0.0703125 2.21875 0.03125 L 0.078125 -4.5 C 0.0546875 -4.550781 0.0507812 -4.585938 0.0625 -4.609375 C 0.0820312 -4.640625 0.113281 -4.65625 0.15625 -4.65625 L 0.609375 -4.65625 C 0.660156 -4.65625 0.695312 -4.644531 0.71875 -4.625 C 0.75 -4.601562 0.773438 -4.5625 0.796875 -4.5 L 2.34375 -1.171875 L 2.34375 -1.15625 L 3.890625 -4.5 C 3.921875 -4.5625 3.945312 -4.601562 3.96875 -4.625 C 3.988281 -4.644531 4.019531 -4.65625 4.0625 -4.65625 Z M 4.0625 -4.65625 "/></g></g></g><g fill="#ffffff" fill-opacity="1"><g transform="translate(104.343988, 54.67221)"><g><path d="M 4.390625 0 L 4.125 0 C 4.0625 0 4.019531 -0.046875 4 -0.140625 L 3.953125 -0.765625 C 3.878906 -0.660156 3.757812 -0.535156 3.59375 -0.390625 C 3.425781 -0.253906 3.21875 -0.140625 2.96875 -0.046875 C 2.726562 0.046875 2.445312 0.09375 2.125 0.09375 C 1.832031 0.09375 1.5625 0.0351562 1.3125 -0.078125 C 1.0625 -0.191406 0.863281 -0.363281 0.71875 -0.59375 C 0.570312 -0.820312 0.5 -1.097656 0.5 -1.421875 C 0.5 -1.921875 0.671875 -2.289062 1.015625 -2.53125 C 1.359375 -2.769531 1.8125 -2.890625 2.375 -2.890625 C 2.613281 -2.890625 2.859375 -2.859375 3.109375 -2.796875 C 3.367188 -2.742188 3.613281 -2.671875 3.84375 -2.578125 C 3.84375 -3.160156 3.742188 -3.566406 3.546875 -3.796875 C 3.359375 -4.035156 3.023438 -4.15625 2.546875 -4.15625 C 2.253906 -4.15625 1.988281 -4.132812 1.75 -4.09375 C 1.519531 -4.0625 1.316406 -4.03125 1.140625 -4 C 1.128906 -4 1.113281 -4 1.09375 -4 C 1.03125 -4 0.988281 -4.039062 0.96875 -4.125 L 0.890625 -4.40625 C 0.867188 -4.5 0.90625 -4.5625 1 -4.59375 C 1.039062 -4.601562 1.140625 -4.617188 1.296875 -4.640625 C 1.460938 -4.671875 1.65625 -4.695312 1.875 -4.71875 C 2.101562 -4.738281 2.335938 -4.75 2.578125 -4.75 C 3.085938 -4.75 3.484375 -4.671875 3.765625 -4.515625 C 4.054688 -4.359375 4.253906 -4.117188 4.359375 -3.796875 C 4.472656 -3.472656 4.53125 -3.0625 4.53125 -2.5625 L 4.53125 -0.140625 C 4.53125 -0.046875 4.484375 0 4.390625 0 Z M 2.5 -2.390625 C 2.070312 -2.390625 1.742188 -2.304688 1.515625 -2.140625 C 1.285156 -1.972656 1.171875 -1.734375 1.171875 -1.421875 C 1.171875 -1.140625 1.269531 -0.90625 1.46875 -0.71875 C 1.664062 -0.53125 1.953125 -0.4375 2.328125 -0.4375 C 2.546875 -0.4375 2.75 -0.476562 2.9375 -0.5625 C 3.132812 -0.644531 3.3125 -0.753906 3.46875 -0.890625 C 3.625 -1.023438 3.75 -1.160156 3.84375 -1.296875 L 3.84375 -2.0625 C 3.613281 -2.15625 3.394531 -2.234375 3.1875 -2.296875 C 2.988281 -2.359375 2.757812 -2.390625 2.5 -2.390625 Z M 2.5 -2.390625 "/></g></g></g><g fill="#ffffff" fill-opacity="1"><g transform="translate(109.528077, 54.67221)"><g><path d="M 0.9375 -0.140625 L 0.9375 -6.59375 C 0.9375 -6.695312 0.988281 -6.75 1.09375 -6.75 L 1.484375 -6.75 C 1.578125 -6.75 1.625 -6.695312 1.625 -6.59375 L 1.625 -0.140625 C 1.625 -0.046875 1.578125 0 1.484375 0 L 1.09375 0 C 0.988281 0 0.9375 -0.046875 0.9375 -0.140625 Z M 0.9375 -0.140625 "/></g></g></g><g fill="#ffffff" fill-opacity="1"><g transform="translate(112.097263, 54.67221)"><g><path d="M 2.46875 0.09375 C 2.144531 0.09375 1.84375 0.0234375 1.5625 -0.109375 C 1.289062 -0.242188 1.070312 -0.460938 0.90625 -0.765625 C 0.738281 -1.066406 0.65625 -1.460938 0.65625 -1.953125 L 0.65625 -4.5 C 0.65625 -4.601562 0.703125 -4.65625 0.796875 -4.65625 L 1.203125 -4.65625 C 1.296875 -4.65625 1.34375 -4.601562 1.34375 -4.5 L 1.34375 -2.140625 C 1.34375 -1.597656 1.460938 -1.191406 1.703125 -0.921875 C 1.953125 -0.648438 2.257812 -0.515625 2.625 -0.515625 C 2.894531 -0.515625 3.128906 -0.59375 3.328125 -0.75 C 3.523438 -0.90625 3.675781 -1.109375 3.78125 -1.359375 C 3.882812 -1.617188 3.9375 -1.898438 3.9375 -2.203125 L 3.9375 -4.5 C 3.9375 -4.601562 3.984375 -4.65625 4.078125 -4.65625 L 4.484375 -4.65625 C 4.578125 -4.65625 4.625 -4.601562 4.625 -4.5 L 4.625 -0.140625 C 4.625 -0.046875 4.578125 0 4.484375 0 L 4.265625 0 C 4.203125 0 4.148438 -0.046875 4.109375 -0.140625 L 4.03125 -0.96875 C 3.96875 -0.84375 3.867188 -0.695312 3.734375 -0.53125 C 3.609375 -0.363281 3.441406 -0.21875 3.234375 -0.09375 C 3.023438 0.03125 2.769531 0.09375 2.46875 0.09375 Z M 2.46875 0.09375 "/></g></g></g><g fill="#ffffff" fill-opacity="1"><g transform="translate(117.628786, 54.67221)"><g><path d="M 4.390625 0 L 4.125 0 C 4.0625 0 4.019531 -0.046875 4 -0.140625 L 3.953125 -0.765625 C 3.878906 -0.660156 3.757812 -0.535156 3.59375 -0.390625 C 3.425781 -0.253906 3.21875 -0.140625 2.96875 -0.046875 C 2.726562 0.046875 2.445312 0.09375 2.125 0.09375 C 1.832031 0.09375 1.5625 0.0351562 1.3125 -0.078125 C 1.0625 -0.191406 0.863281 -0.363281 0.71875 -0.59375 C 0.570312 -0.820312 0.5 -1.097656 0.5 -1.421875 C 0.5 -1.921875 0.671875 -2.289062 1.015625 -2.53125 C 1.359375 -2.769531 1.8125 -2.890625 2.375 -2.890625 C 2.613281 -2.890625 2.859375 -2.859375 3.109375 -2.796875 C 3.367188 -2.742188 3.613281 -2.671875 3.84375 -2.578125 C 3.84375 -3.160156 3.742188 -3.566406 3.546875 -3.796875 C 3.359375 -4.035156 3.023438 -4.15625 2.546875 -4.15625 C 2.253906 -4.15625 1.988281 -4.132812 1.75 -4.09375 C 1.519531 -4.0625 1.316406 -4.03125 1.140625 -4 C 1.128906 -4 1.113281 -4 1.09375 -4 C 1.03125 -4 0.988281 -4.039062 0.96875 -4.125 L 0.890625 -4.40625 C 0.867188 -4.5 0.90625 -4.5625 1 -4.59375 C 1.039062 -4.601562 1.140625 -4.617188 1.296875 -4.640625 C 1.460938 -4.671875 1.65625 -4.695312 1.875 -4.71875 C 2.101562 -4.738281 2.335938 -4.75 2.578125 -4.75 C 3.085938 -4.75 3.484375 -4.671875 3.765625 -4.515625 C 4.054688 -4.359375 4.253906 -4.117188 4.359375 -3.796875 C 4.472656 -3.472656 4.53125 -3.0625 4.53125 -2.5625 L 4.53125 -0.140625 C 4.53125 -0.046875 4.484375 0 4.390625 0 Z M 2.5 -2.390625 C 2.070312 -2.390625 1.742188 -2.304688 1.515625 -2.140625 C 1.285156 -1.972656 1.171875 -1.734375 1.171875 -1.421875 C 1.171875 -1.140625 1.269531 -0.90625 1.46875 -0.71875 C 1.664062 -0.53125 1.953125 -0.4375 2.328125 -0.4375 C 2.546875 -0.4375 2.75 -0.476562 2.9375 -0.5625 C 3.132812 -0.644531 3.3125 -0.753906 3.46875 -0.890625 C 3.625 -1.023438 3.75 -1.160156 3.84375 -1.296875 L 3.84375 -2.0625 C 3.613281 -2.15625 3.394531 -2.234375 3.1875 -2.296875 C 2.988281 -2.359375 2.757812 -2.390625 2.5 -2.390625 Z M 2.5 -2.390625 "/></g></g></g><g fill="#ffffff" fill-opacity="1"><g transform="translate(122.812875, 54.67221)"><g><path d="M 5.34375 -2.328125 C 5.34375 -1.890625 5.253906 -1.484375 5.078125 -1.109375 C 4.910156 -0.742188 4.664062 -0.453125 4.34375 -0.234375 C 4.03125 -0.015625 3.660156 0.09375 3.234375 0.09375 C 2.960938 0.09375 2.726562 0.0546875 2.53125 -0.015625 C 2.332031 -0.0976562 2.160156 -0.195312 2.015625 -0.3125 C 1.867188 -0.4375 1.75 -0.5625 1.65625 -0.6875 C 1.570312 -0.8125 1.5 -0.914062 1.4375 -1 L 1.375 -0.140625 C 1.332031 -0.046875 1.28125 0 1.21875 0 L 1 0 C 0.90625 0 0.859375 -0.046875 0.859375 -0.140625 L 0.859375 -6.59375 C 0.859375 -6.695312 0.90625 -6.75 1 -6.75 L 1.40625 -6.75 C 1.5 -6.75 1.546875 -6.695312 1.546875 -6.59375 L 1.546875 -3.6875 C 1.578125 -3.75 1.628906 -3.835938 1.703125 -3.953125 C 1.785156 -4.066406 1.894531 -4.1875 2.03125 -4.3125 C 2.164062 -4.4375 2.332031 -4.539062 2.53125 -4.625 C 2.726562 -4.707031 2.960938 -4.75 3.234375 -4.75 C 3.660156 -4.75 4.03125 -4.640625 4.34375 -4.421875 C 4.664062 -4.203125 4.910156 -3.910156 5.078125 -3.546875 C 5.253906 -3.179688 5.34375 -2.773438 5.34375 -2.328125 Z M 3.109375 -0.515625 C 3.421875 -0.515625 3.691406 -0.59375 3.921875 -0.75 C 4.160156 -0.914062 4.34375 -1.132812 4.46875 -1.40625 C 4.601562 -1.6875 4.671875 -1.992188 4.671875 -2.328125 C 4.671875 -2.648438 4.601562 -2.945312 4.46875 -3.21875 C 4.34375 -3.488281 4.160156 -3.707031 3.921875 -3.875 C 3.691406 -4.039062 3.421875 -4.125 3.109375 -4.125 C 2.785156 -4.125 2.503906 -4.035156 2.265625 -3.859375 C 2.035156 -3.691406 1.859375 -3.46875 1.734375 -3.1875 C 1.609375 -2.914062 1.546875 -2.628906 1.546875 -2.328125 C 1.546875 -2.023438 1.609375 -1.734375 1.734375 -1.453125 C 1.859375 -1.179688 2.035156 -0.957031 2.265625 -0.78125 C 2.503906 -0.601562 2.785156 -0.515625 3.109375 -0.515625 Z M 3.109375 -0.515625 "/></g></g></g><g fill="#ffffff" fill-opacity="1"><g transform="translate(128.600408, 54.67221)"><g><path d="M 0.9375 -0.140625 L 0.9375 -6.59375 C 0.9375 -6.695312 0.988281 -6.75 1.09375 -6.75 L 1.484375 -6.75 C 1.578125 -6.75 1.625 -6.695312 1.625 -6.59375 L 1.625 -0.140625 C 1.625 -0.046875 1.578125 0 1.484375 0 L 1.09375 0 C 0.988281 0 0.9375 -0.046875 0.9375 -0.140625 Z M 0.9375 -0.140625 "/></g></g></g><g fill="#ffffff" fill-opacity="1"><g transform="translate(131.169594, 54.67221)"><g><path d="M 4.546875 -0.953125 L 4.71875 -0.734375 C 4.78125 -0.660156 4.78125 -0.597656 4.71875 -0.546875 C 4.507812 -0.335938 4.234375 -0.175781 3.890625 -0.0625 C 3.554688 0.0390625 3.21875 0.09375 2.875 0.09375 C 2.414062 0.09375 2.003906 -0.015625 1.640625 -0.234375 C 1.273438 -0.453125 0.984375 -0.742188 0.765625 -1.109375 C 0.546875 -1.472656 0.4375 -1.878906 0.4375 -2.328125 C 0.4375 -2.765625 0.539062 -3.164062 0.75 -3.53125 C 0.96875 -3.90625 1.257812 -4.203125 1.625 -4.421875 C 1.988281 -4.640625 2.390625 -4.75 2.828125 -4.75 C 3.304688 -4.75 3.710938 -4.632812 4.046875 -4.40625 C 4.390625 -4.175781 4.648438 -3.867188 4.828125 -3.484375 C 5.003906 -3.109375 5.09375 -2.691406 5.09375 -2.234375 C 5.09375 -2.171875 5.082031 -2.128906 5.0625 -2.109375 C 5.050781 -2.085938 5.015625 -2.078125 4.953125 -2.078125 L 1.140625 -2.078125 C 1.160156 -1.796875 1.25 -1.535156 1.40625 -1.296875 C 1.570312 -1.054688 1.785156 -0.863281 2.046875 -0.71875 C 2.316406 -0.570312 2.601562 -0.5 2.90625 -0.5 C 3.132812 -0.5 3.375 -0.535156 3.625 -0.609375 C 3.882812 -0.679688 4.125 -0.796875 4.34375 -0.953125 C 4.375 -0.972656 4.394531 -0.984375 4.40625 -0.984375 C 4.425781 -0.992188 4.441406 -1 4.453125 -1 C 4.484375 -1 4.515625 -0.984375 4.546875 -0.953125 Z M 2.828125 -4.171875 C 2.515625 -4.171875 2.234375 -4.09375 1.984375 -3.9375 C 1.734375 -3.789062 1.535156 -3.59375 1.390625 -3.34375 C 1.242188 -3.09375 1.164062 -2.832031 1.15625 -2.5625 L 4.390625 -2.5625 C 4.378906 -2.832031 4.304688 -3.09375 4.171875 -3.34375 C 4.035156 -3.59375 3.851562 -3.789062 3.625 -3.9375 C 3.40625 -4.09375 3.140625 -4.171875 2.828125 -4.171875 Z M 2.828125 -4.171875 "/></g></g></g><g fill="#ffffff" fill-opacity="1"><g transform="translate(136.6554, 54.67221)"><g/></g></g><g fill="#ffffff" fill-opacity="1"><g transform="translate(138.968586, 54.67221)"><g><path d="M 4.390625 0 L 4.125 0 C 4.0625 0 4.019531 -0.046875 4 -0.140625 L 3.953125 -0.765625 C 3.878906 -0.660156 3.757812 -0.535156 3.59375 -0.390625 C 3.425781 -0.253906 3.21875 -0.140625 2.96875 -0.046875 C 2.726562 0.046875 2.445312 0.09375 2.125 0.09375 C 1.832031 0.09375 1.5625 0.0351562 1.3125 -0.078125 C 1.0625 -0.191406 0.863281 -0.363281 0.71875 -0.59375 C 0.570312 -0.820312 0.5 -1.097656 0.5 -1.421875 C 0.5 -1.921875 0.671875 -2.289062 1.015625 -2.53125 C 1.359375 -2.769531 1.8125 -2.890625 2.375 -2.890625 C 2.613281 -2.890625 2.859375 -2.859375 3.109375 -2.796875 C 3.367188 -2.742188 3.613281 -2.671875 3.84375 -2.578125 C 3.84375 -3.160156 3.742188 -3.566406 3.546875 -3.796875 C 3.359375 -4.035156 3.023438 -4.15625 2.546875 -4.15625 C 2.253906 -4.15625 1.988281 -4.132812 1.75 -4.09375 C 1.519531 -4.0625 1.316406 -4.03125 1.140625 -4 C 1.128906 -4 1.113281 -4 1.09375 -4 C 1.03125 -4 0.988281 -4.039062 0.96875 -4.125 L 0.890625 -4.40625 C 0.867188 -4.5 0.90625 -4.5625 1 -4.59375 C 1.039062 -4.601562 1.140625 -4.617188 1.296875 -4.640625 C 1.460938 -4.671875 1.65625 -4.695312 1.875 -4.71875 C 2.101562 -4.738281 2.335938 -4.75 2.578125 -4.75 C 3.085938 -4.75 3.484375 -4.671875 3.765625 -4.515625 C 4.054688 -4.359375 4.253906 -4.117188 4.359375 -3.796875 C 4.472656 -3.472656 4.53125 -3.0625 4.53125 -2.5625 L 4.53125 -0.140625 C 4.53125 -0.046875 4.484375 0 4.390625 0 Z M 2.5 -2.390625 C 2.070312 -2.390625 1.742188 -2.304688 1.515625 -2.140625 C 1.285156 -1.972656 1.171875 -1.734375 1.171875 -1.421875 C 1.171875 -1.140625 1.269531 -0.90625 1.46875 -0.71875 C 1.664062 -0.53125 1.953125 -0.4375 2.328125 -0.4375 C 2.546875 -0.4375 2.75 -0.476562 2.9375 -0.5625 C 3.132812 -0.644531 3.3125 -0.753906 3.46875 -0.890625 C 3.625 -1.023438 3.75 -1.160156 3.84375 -1.296875 L 3.84375 -2.0625 C 3.613281 -2.15625 3.394531 -2.234375 3.1875 -2.296875 C 2.988281 -2.359375 2.757812 -2.390625 2.5 -2.390625 Z M 2.5 -2.390625 "/></g></g></g><g fill="#ffffff" fill-opacity="1"><g transform="translate(144.152675, 54.67221)"><g><path d="M 4.0625 -4.046875 L 3.953125 -3.828125 C 3.921875 -3.753906 3.882812 -3.71875 3.84375 -3.71875 C 3.8125 -3.71875 3.78125 -3.726562 3.75 -3.75 C 3.5 -3.90625 3.269531 -4.019531 3.0625 -4.09375 C 2.863281 -4.164062 2.613281 -4.203125 2.3125 -4.203125 C 1.925781 -4.203125 1.640625 -4.125 1.453125 -3.96875 C 1.265625 -3.8125 1.171875 -3.609375 1.171875 -3.359375 C 1.171875 -3.109375 1.28125 -2.941406 1.5 -2.859375 C 1.726562 -2.785156 2.046875 -2.71875 2.453125 -2.65625 C 2.765625 -2.613281 3.054688 -2.546875 3.328125 -2.453125 C 3.597656 -2.359375 3.816406 -2.222656 3.984375 -2.046875 C 4.148438 -1.878906 4.234375 -1.644531 4.234375 -1.34375 C 4.234375 -0.925781 4.066406 -0.582031 3.734375 -0.3125 C 3.410156 -0.0390625 2.957031 0.09375 2.375 0.09375 C 2.125 0.09375 1.832031 0.0546875 1.5 -0.015625 C 1.164062 -0.0976562 0.828125 -0.253906 0.484375 -0.484375 C 0.421875 -0.523438 0.410156 -0.59375 0.453125 -0.6875 L 0.578125 -0.921875 C 0.617188 -0.984375 0.65625 -1.015625 0.6875 -1.015625 C 0.707031 -1.015625 0.738281 -1 0.78125 -0.96875 C 0.988281 -0.832031 1.222656 -0.710938 1.484375 -0.609375 C 1.753906 -0.503906 2.035156 -0.453125 2.328125 -0.453125 C 2.773438 -0.453125 3.09375 -0.535156 3.28125 -0.703125 C 3.476562 -0.867188 3.578125 -1.070312 3.578125 -1.3125 C 3.578125 -1.507812 3.46875 -1.664062 3.25 -1.78125 C 3.03125 -1.894531 2.710938 -1.976562 2.296875 -2.03125 C 1.992188 -2.082031 1.707031 -2.144531 1.4375 -2.21875 C 1.164062 -2.289062 0.941406 -2.414062 0.765625 -2.59375 C 0.597656 -2.769531 0.515625 -3.015625 0.515625 -3.328125 C 0.515625 -3.753906 0.671875 -4.097656 0.984375 -4.359375 C 1.304688 -4.617188 1.738281 -4.75 2.28125 -4.75 C 2.507812 -4.75 2.773438 -4.710938 3.078125 -4.640625 C 3.390625 -4.566406 3.703125 -4.429688 4.015625 -4.234375 C 4.078125 -4.210938 4.109375 -4.1875 4.109375 -4.15625 C 4.109375 -4.125 4.09375 -4.085938 4.0625 -4.046875 Z M 4.0625 -4.046875 "/></g></g></g><g fill="#ffffff" fill-opacity="1"><g transform="translate(148.797329, 54.67221)"><g><path d="M 4.0625 -4.046875 L 3.953125 -3.828125 C 3.921875 -3.753906 3.882812 -3.71875 3.84375 -3.71875 C 3.8125 -3.71875 3.78125 -3.726562 3.75 -3.75 C 3.5 -3.90625 3.269531 -4.019531 3.0625 -4.09375 C 2.863281 -4.164062 2.613281 -4.203125 2.3125 -4.203125 C 1.925781 -4.203125 1.640625 -4.125 1.453125 -3.96875 C 1.265625 -3.8125 1.171875 -3.609375 1.171875 -3.359375 C 1.171875 -3.109375 1.28125 -2.941406 1.5 -2.859375 C 1.726562 -2.785156 2.046875 -2.71875 2.453125 -2.65625 C 2.765625 -2.613281 3.054688 -2.546875 3.328125 -2.453125 C 3.597656 -2.359375 3.816406 -2.222656 3.984375 -2.046875 C 4.148438 -1.878906 4.234375 -1.644531 4.234375 -1.34375 C 4.234375 -0.925781 4.066406 -0.582031 3.734375 -0.3125 C 3.410156 -0.0390625 2.957031 0.09375 2.375 0.09375 C 2.125 0.09375 1.832031 0.0546875 1.5 -0.015625 C 1.164062 -0.0976562 0.828125 -0.253906 0.484375 -0.484375 C 0.421875 -0.523438 0.410156 -0.59375 0.453125 -0.6875 L 0.578125 -0.921875 C 0.617188 -0.984375 0.65625 -1.015625 0.6875 -1.015625 C 0.707031 -1.015625 0.738281 -1 0.78125 -0.96875 C 0.988281 -0.832031 1.222656 -0.710938 1.484375 -0.609375 C 1.753906 -0.503906 2.035156 -0.453125 2.328125 -0.453125 C 2.773438 -0.453125 3.09375 -0.535156 3.28125 -0.703125 C 3.476562 -0.867188 3.578125 -1.070312 3.578125 -1.3125 C 3.578125 -1.507812 3.46875 -1.664062 3.25 -1.78125 C 3.03125 -1.894531 2.710938 -1.976562 2.296875 -2.03125 C 1.992188 -2.082031 1.707031 -2.144531 1.4375 -2.21875 C 1.164062 -2.289062 0.941406 -2.414062 0.765625 -2.59375 C 0.597656 -2.769531 0.515625 -3.015625 0.515625 -3.328125 C 0.515625 -3.753906 0.671875 -4.097656 0.984375 -4.359375 C 1.304688 -4.617188 1.738281 -4.75 2.28125 -4.75 C 2.507812 -4.75 2.773438 -4.710938 3.078125 -4.640625 C 3.390625 -4.566406 3.703125 -4.429688 4.015625 -4.234375 C 4.078125 -4.210938 4.109375 -4.1875 4.109375 -4.15625 C 4.109375 -4.125 4.09375 -4.085938 4.0625 -4.046875 Z M 4.0625 -4.046875 "/></g></g></g><g fill="#ffffff" fill-opacity="1"><g transform="translate(153.441982, 54.67221)"><g><path d="M 4.546875 -0.953125 L 4.71875 -0.734375 C 4.78125 -0.660156 4.78125 -0.597656 4.71875 -0.546875 C 4.507812 -0.335938 4.234375 -0.175781 3.890625 -0.0625 C 3.554688 0.0390625 3.21875 0.09375 2.875 0.09375 C 2.414062 0.09375 2.003906 -0.015625 1.640625 -0.234375 C 1.273438 -0.453125 0.984375 -0.742188 0.765625 -1.109375 C 0.546875 -1.472656 0.4375 -1.878906 0.4375 -2.328125 C 0.4375 -2.765625 0.539062 -3.164062 0.75 -3.53125 C 0.96875 -3.90625 1.257812 -4.203125 1.625 -4.421875 C 1.988281 -4.640625 2.390625 -4.75 2.828125 -4.75 C 3.304688 -4.75 3.710938 -4.632812 4.046875 -4.40625 C 4.390625 -4.175781 4.648438 -3.867188 4.828125 -3.484375 C 5.003906 -3.109375 5.09375 -2.691406 5.09375 -2.234375 C 5.09375 -2.171875 5.082031 -2.128906 5.0625 -2.109375 C 5.050781 -2.085938 5.015625 -2.078125 4.953125 -2.078125 L 1.140625 -2.078125 C 1.160156 -1.796875 1.25 -1.535156 1.40625 -1.296875 C 1.570312 -1.054688 1.785156 -0.863281 2.046875 -0.71875 C 2.316406 -0.570312 2.601562 -0.5 2.90625 -0.5 C 3.132812 -0.5 3.375 -0.535156 3.625 -0.609375 C 3.882812 -0.679688 4.125 -0.796875 4.34375 -0.953125 C 4.375 -0.972656 4.394531 -0.984375 4.40625 -0.984375 C 4.425781 -0.992188 4.441406 -1 4.453125 -1 C 4.484375 -1 4.515625 -0.984375 4.546875 -0.953125 Z M 2.828125 -4.171875 C 2.515625 -4.171875 2.234375 -4.09375 1.984375 -3.9375 C 1.734375 -3.789062 1.535156 -3.59375 1.390625 -3.34375 C 1.242188 -3.09375 1.164062 -2.832031 1.15625 -2.5625 L 4.390625 -2.5625 C 4.378906 -2.832031 4.304688 -3.09375 4.171875 -3.34375 C 4.035156 -3.59375 3.851562 -3.789062 3.625 -3.9375 C 3.40625 -4.09375 3.140625 -4.171875 2.828125 -4.171875 Z M 2.828125 -4.171875 "/></g></g></g><g fill="#ffffff" fill-opacity="1"><g transform="translate(158.927787, 54.67221)"><g><path d="M 1.6875 -4.65625 L 3.34375 -4.65625 C 3.394531 -4.65625 3.429688 -4.644531 3.453125 -4.625 C 3.472656 -4.601562 3.484375 -4.5625 3.484375 -4.5 L 3.484375 -4.234375 C 3.484375 -4.128906 3.4375 -4.078125 3.34375 -4.078125 L 1.6875 -4.078125 L 1.6875 -1.984375 C 1.6875 -1.441406 1.769531 -1.0625 1.9375 -0.84375 C 2.101562 -0.625 2.375 -0.515625 2.75 -0.515625 C 2.875 -0.515625 2.976562 -0.519531 3.0625 -0.53125 C 3.15625 -0.550781 3.257812 -0.59375 3.375 -0.65625 C 3.414062 -0.675781 3.445312 -0.6875 3.46875 -0.6875 C 3.507812 -0.6875 3.539062 -0.648438 3.5625 -0.578125 L 3.609375 -0.296875 C 3.628906 -0.210938 3.609375 -0.15625 3.546875 -0.125 C 3.359375 -0.0078125 3.179688 0.0507812 3.015625 0.0625 C 2.847656 0.0820312 2.734375 0.09375 2.671875 0.09375 C 2.066406 0.09375 1.640625 -0.0820312 1.390625 -0.4375 C 1.140625 -0.800781 1.015625 -1.296875 1.015625 -1.921875 L 1.015625 -4.078125 L 0.5625 -4.078125 C 0.46875 -4.078125 0.421875 -4.128906 0.421875 -4.234375 L 0.421875 -4.5 C 0.421875 -4.5625 0.429688 -4.601562 0.453125 -4.625 C 0.472656 -4.644531 0.507812 -4.65625 0.5625 -4.65625 L 1.015625 -4.65625 L 1.015625 -5.59375 C 1.015625 -5.6875 1.0625 -5.734375 1.15625 -5.734375 L 1.546875 -5.734375 C 1.640625 -5.734375 1.6875 -5.6875 1.6875 -5.59375 Z M 1.6875 -4.65625 "/></g></g></g></svg>